<?xml version="1.0" encoding="UTF-8"?>
<svg xmlns="http://www.w3.org/2000/svg" xmlns:xlink="http://www.w3.org/1999/xlink" width="120.426" height="113.784" viewBox="0 0 120.426 113.784">
<defs>
<clipPath id="clip-0">
<path clip-rule="nonzero" d="M 0 65 L 120.425781 65 L 120.425781 113.785156 L 0 113.785156 Z M 0 65 "/>
</clipPath>
<clipPath id="clip-1">
<path clip-rule="nonzero" d="M 0 0 L 120.425781 0 L 120.425781 49 L 0 49 Z M 0 0 "/>
</clipPath>
</defs>
<path fill="none" stroke-width="0.3985" stroke-linecap="butt" stroke-linejoin="miter" stroke="rgb(0%, 0%, 0%)" stroke-opacity="1" stroke-miterlimit="10" d="M -56.693469 0.001375 L 56.69325 0.001375 " transform="matrix(1, 0, 0, -1, 60.213, 56.892)"/>
<path fill-rule="nonzero" fill="rgb(50%, 50%, 50%)" fill-opacity="1" stroke-width="0.3985" stroke-linecap="butt" stroke-linejoin="miter" stroke="rgb(50%, 50%, 50%)" stroke-opacity="1" stroke-miterlimit="10" d="M 1.994031 0.001375 C 1.994031 1.099031 1.0995 1.993563 0.00184375 1.993563 C -1.099719 1.993563 -1.99425 1.099031 -1.99425 0.001375 C -1.99425 -1.100187 -1.099719 -1.990812 0.00184375 -1.990812 C 1.0995 -1.990812 1.994031 -1.100187 1.994031 0.001375 Z M 1.994031 0.001375 " transform="matrix(1, 0, 0, -1, 60.213, 56.892)"/>
<g clip-path="url(#clip-0)">
<path fill="none" stroke-width="0.3985" stroke-linecap="butt" stroke-linejoin="miter" stroke="rgb(0%, 0%, 0%)" stroke-opacity="1" stroke-miterlimit="10" d="M -56.693469 -56.693937 C 0.00184375 0.001375 0.00184375 0.001375 56.69325 -56.693937 " transform="matrix(1, 0, 0, -1, 60.213, 56.892)"/>
</g>
<g clip-path="url(#clip-1)">
<path fill="none" stroke-width="0.3985" stroke-linecap="butt" stroke-linejoin="miter" stroke="rgb(0%, 0%, 0%)" stroke-opacity="1" stroke-miterlimit="10" d="M -56.693469 56.692781 C -28.345813 0.001375 28.345594 0.001375 56.69325 56.692781 " transform="matrix(1, 0, 0, -1, 60.213, 56.892)"/>
</g>
</svg>
